<!-- <svg  xmlns="http://www.w3.org/2000/svg"  width="24"  height="24"  viewBox="0 0 24 24"  fill="none"  stroke="currentColor"  stroke-width="2"  stroke-linecap="round"  stroke-linejoin="round"  class="icon icon-tabler icons-tabler-outline icon-tabler-brand-twitch"><path stroke="none" d="M0 0h24v24H0z" fill="none"/><path d="M4 5v11a1 1 0 0 0 1 1h2v4l4 -4h5.584c.266 0 .52 -.105 .707 -.293l2.415 -2.414c.187 -.188 .293 -.442 .293 -.708v-8.585a1 1 0 0 0 -1 -1h-14a1 1 0 0 0 -1 1z" /><path d="M16 8l0 4" /><path d="M12 8l0 4" /></svg> -->

<svg
 xmlns="http://www.w3.org/2000/svg"
	width="36"
	height="48"
	viewBox="0 0 24 24"
	fill="currentColor"
	role="img"
	aria-label="Logotipo de Twitch"
>
	<path
		fill-rule="evenodd"
		d="M2.149 0 .537 4.119v16.836h5.731V24h3.224l3.045-3.045h4.657l6.269-6.269V0H2.149zm19.164 13.612-3.582 3.582H12l-3.045 3.045v-3.045H4.119V2.149h17.194v11.463zm-3.582-7.343v6.262h-2.149V6.269h2.149zm-5.731 0v6.262H9.851V6.269H12z"
		clip-rule="evenodd"
	>
	</path>
</svg>